<?xml version="1.0" encoding="UTF-8"?>
<svg width="320px" height="100px" viewBox="0 0 320 100" version="1.1" xmlns="http://www.w3.org/2000/svg" xmlns:xlink="http://www.w3.org/1999/xlink">
    <!-- Generator: Sketch 49.1 (51147) - http://www.bohemiancoding.com/sketch -->
    <title>Artboard Copy</title>
    <desc>Created with Sketch.</desc>
    <defs></defs>
    <g id="Artboard-Copy" stroke="none" stroke-width="1" fill="none" fill-rule="evenodd">
        <g id="Group" transform="translate(5.000000, 3.000000)" fill="#FFFFFF">
            <path d="M93.8118,47.7892 C93.8118,73.6612 72.8378,94.6342 46.9668,94.6342 C21.0938,94.6342 0.1208,73.6612 0.1208,47.7892 C0.1208,21.9172 21.0938,0.9442 46.9668,0.9442 C72.8378,0.9442 93.8118,21.9172 93.8118,47.7892 Z M58.4438,32.1319 L58.4438,35.7029 C55.3238,32.7819 50.3328,31.0239 45.0378,31.0239 C32.9318,31.0239 24.1238,40.3619 24.1238,51.6439 L24.1238,51.7929 C24.1238,63.0009 32.8578,72.1899 44.8848,72.1899 C50.2418,72.1899 55.3238,70.3819 58.4438,67.4039 L58.4438,71.1319 L67.8038,71.1319 L67.8038,32.1319 L58.4438,32.1319 Z M56.8838,51.7929 C56.8838,58.5909 52.2858,64.2699 44.9608,64.2699 C37.9408,64.2699 32.9638,58.5169 32.9638,51.6439 L32.9638,51.4939 C32.9638,44.6199 37.5638,38.9409 44.8088,38.9409 C51.9068,38.9409 56.8838,44.6959 56.8838,51.6439 L56.8838,51.7929 Z M42.0569,16.0294 C40.8699,14.7504 39.8599,13.9184 38.9679,13.3844 C38.0119,12.8104 37.0129,12.5444 35.9999,12.5444 C34.6789,12.5444 33.5599,13.0134 32.6739,13.9134 C31.7909,14.8094 31.3439,15.9364 31.3439,17.2504 C31.3439,18.3214 31.6859,19.2784 32.3599,20.0894 C32.9809,20.8364 33.9309,21.5124 35.3669,22.1284 C37.5899,23.0804 44.4489,25.3724 44.4489,25.3724 L50.7979,25.3724 L42.0569,16.0294 Z" id="Combined-Shape"></path>
            <path d="M162.5791,71.0827 L159.0181,62.3477 L142.5501,62.3477 L138.9891,71.0827 L130.2551,71.0827 L146.9451,31.8587 L154.8461,31.8587 L171.5371,71.0827 L162.5791,71.0827 Z M148.0031,29.0767 L140.8811,22.4007 L148.1691,19.2287 L154.4561,29.0767 L148.0031,29.0767 Z M150.7851,42.1517 L145.6101,54.7807 L155.9581,54.7807 L150.7851,42.1517 Z" id="Fill-6"></path>
            <path d="M206.5354,59.3989 L200.0254,59.3989 L200.0254,71.0829 L191.4574,71.0829 L191.4574,32.1369 L207.3694,32.1369 C216.6614,32.1369 222.2804,37.6449 222.2804,45.6009 L222.2804,45.7119 C222.2804,54.7259 215.2694,59.3989 206.5354,59.3989 Z M213.6014,45.7679 C213.6014,41.9289 210.9304,39.8699 206.6464,39.8699 L200.0254,39.8699 L200.0254,51.7769 L206.8134,51.7769 C211.0974,51.7769 213.6014,49.2169 213.6014,45.8789 L213.6014,45.7679 Z" id="Fill-7"></path>
            <path d="M244.9817,71.0827 L244.9817,66.8537 C243.0347,69.3577 240.5317,71.6397 236.2467,71.6397 C229.8487,71.6397 226.1207,67.4107 226.1207,60.5677 L226.1207,41.2607 L234.5777,41.2607 L234.5777,57.8967 C234.5777,61.9027 236.4697,63.9607 239.6967,63.9607 C242.9227,63.9607 244.9817,61.9027 244.9817,57.8967 L244.9817,41.2607 L253.4387,41.2607 L253.4387,71.0827 L244.9817,71.0827 Z" id="Fill-8"></path>
            <path d="M278.4761,71.0827 L278.4761,54.4477 C278.4761,50.4407 276.5851,48.3827 273.3571,48.3827 C270.1311,48.3827 268.0721,50.4407 268.0721,54.4477 L268.0721,71.0827 L259.6151,71.0827 L259.6151,41.2607 L268.0721,41.2607 L268.0721,45.4897 C270.0191,42.9857 272.5231,40.7047 276.8071,40.7047 C283.2061,40.7047 286.9331,44.9337 286.9331,51.7767 L286.9331,71.0827 L278.4761,71.0827 Z" id="Fill-9"></path>
            <path d="M302.9578,71.6392 C297.7828,71.6392 294.2778,69.5802 294.2778,62.6812 L294.2778,48.5502 L290.7178,48.5502 L290.7178,41.3172 L294.2778,41.3172 L294.2778,33.6942 L302.7358,33.6942 L302.7358,41.3172 L309.7448,41.3172 L309.7448,48.5502 L302.7358,48.5502 L302.7358,61.2902 C302.7358,63.2382 303.5688,64.1842 305.4608,64.1842 C307.0198,64.1842 308.4098,63.7942 309.6348,63.1272 L309.6348,69.9142 C307.8538,70.9712 305.7958,71.6392 302.9578,71.6392" id="Fill-10"></path>
        </g>
    </g>
</svg>